HIERARCHY
ROOT Hips
{
 OFFSET 0.000000 0.000000 0.000000
 CHANNELS 6 Xposition Yposition Zposition Yrotation Xrotation Zrotation
 JOINT Chest
 {
  OFFSET 0.000000 9.585900 0.002600
  CHANNELS 3 Yrotation Xrotation Zrotation
  JOINT Chest2
  {
   OFFSET 0.000000 9.601200 -0.005300
   CHANNELS 3 Yrotation Xrotation Zrotation
   JOINT Chest3
   {
    OFFSET 0.000000 9.561800 0.000000
    CHANNELS 3 Yrotation Xrotation Zrotation
    JOINT Chest4
    {
     OFFSET 0.000000 9.552100 0.000000
     CHANNELS 3 Yrotation Xrotation Zrotation
     JOINT Neck
     {
      OFFSET 0.000000 14.453000 0.000000
      CHANNELS 3 Yrotation Xrotation Zrotation
      JOINT Head
      {
       OFFSET 0.000000 8.936500 -0.011300
       CHANNELS 3 Yrotation Xrotation Zrotation
       End Site
       {
        OFFSET 0.000000 17.073600 -0.006000
       }
      }
     }
     JOINT RightCollar
     {
      OFFSET -2.921100 9.558500 0.000000
      CHANNELS 3 Yrotation Xrotation Zrotation
      JOINT RightShoulder
      {
       OFFSET -13.519700 0.000000 0.000000
       CHANNELS 3 Yrotation Xrotation Zrotation
       JOINT RightElbow
       {
        OFFSET 0.000000 -29.696600 0.000000
        CHANNELS 3 Yrotation Xrotation Zrotation
        JOINT RightWrist
        {
         OFFSET 0.000000 -24.004700 0.000000
         CHANNELS 3 Yrotation Xrotation Zrotation
         End Site
         {
          OFFSET 0.000000 -17.728500 0.000000
         }
        }
       }
      }
     }
     JOINT LeftCollar
     {
      OFFSET 2.921100 9.558500 0.000000
      CHANNELS 3 Yrotation Xrotation Zrotation
      JOINT LeftShoulder
      {
       OFFSET 13.519700 0.000000 0.000000
       CHANNELS 3 Yrotation Xrotation Zrotation
       JOINT LeftElbow
       {
        OFFSET 0.000000 -29.696600 0.000000
        CHANNELS 3 Yrotation Xrotation Zrotation
        JOINT LeftWrist
        {
         OFFSET 0.000000 -24.004700 0.000000
         CHANNELS 3 Yrotation Xrotation Zrotation
         End Site
         {
          OFFSET 0.000000 -17.728500 0.000000
         }
        }
       }
      }
     }
    }
   }
  }
 }
 JOINT RightHip
 {
  OFFSET -7.771700 -0.012900 -0.001300
  CHANNELS 3 Yrotation Xrotation Zrotation
  JOINT RightKnee
  {
   OFFSET 0.000000 -40.869800 0.001200
   CHANNELS 3 Yrotation Xrotation Zrotation
   JOINT RightAnkle
   {
    OFFSET 0.000000 -39.717900 0.002100
    CHANNELS 3 Yrotation Xrotation Zrotation
    JOINT RightToe
    {
     OFFSET 0.000000 -4.965400 11.033500
     CHANNELS 3 Yrotation Xrotation Zrotation
     End Site
     {
      OFFSET 0.000000 -1.423100 5.872300
     }
    }
   }
  }
 }
 JOINT LeftHip
 {
  OFFSET 7.771700 -0.012900 -0.001300
  CHANNELS 3 Yrotation Xrotation Zrotation
  JOINT LeftKnee
  {
   OFFSET 0.000000 -40.869800 0.001200
   CHANNELS 3 Yrotation Xrotation Zrotation
   JOINT LeftAnkle
   {
    OFFSET 0.000000 -39.717900 0.002100
    CHANNELS 3 Yrotation Xrotation Zrotation
    JOINT LeftToe
    {
     OFFSET 0.000000 -4.965400 11.033500
     CHANNELS 3 Yrotation Xrotation Zrotation
     End Site
     {
      OFFSET 0.000000 -1.423100 5.872300
     }
    }
   }
  }
 }
}
MOTION
Frames: 16
Frame Time: 0.008333
-16.930443 57.278572 86.507913 172.168599 -35.888009 0.856322 3.095778 22.481214 6.682367 0.315867 3.410491 0.820437 0.533715 5.493896 1.333226 2.498744 19.083821 5.033396 -0.567365 20.406238 -5.353353 0.539616 2.216591 -9.570579 5.079954 0.047912 -2.744880 23.595152 -28.231211 -20.911055 28.031573 -72.928232 18.375555 13.241393 -11.103628 -41.197759 -10.739289 -2.141936 -6.862547 -8.422491 -28.431747 -1.458356 23.374606 -11.454697 -36.454722 10.716715 -2.626770 15.429469 17.289532 -36.418168 -4.642590 -6.432402 66.961583 -5.074241 7.250739 5.469235 9.494008 -0.028481 0.114798 -0.004641 -4.708949 -41.112672 5.161323 26.003673 64.542893 26.469870 -12.182815 27.351530 -4.214425 0.286389 -14.834599 -3.515480
-16.923588 57.277523 86.511238 172.197474 -35.840449 0.841971 3.054134 22.422532 6.686630 0.313963 3.389425 0.816161 0.540452 5.495946 1.322537 2.493429 19.059171 5.030717 -0.573098 20.316388 -5.443294 0.561484 2.054247 -9.735594 5.093998 0.049762 -2.754325 23.583856 -28.194677 -20.877867 28.017132 -72.884171 18.399390 13.214016 -11.119168 -41.216361 -10.734119 -2.153104 -6.864125 -8.457895 -28.393411 -1.458242 23.369099 -11.346094 -36.413851 10.738442 -2.689429 15.515153 17.279718 -36.464015 -4.661271 -6.424166 66.966829 -5.060934 7.245216 5.465926 9.485939 -0.032552 0.114251 -0.005120 -4.749538 -41.165219 5.185117 25.946059 64.526126 26.417187 -12.244359 27.436217 -4.248844 0.318772 -14.875773 -3.526329
-16.908968 57.274982 86.515272 172.199482 -35.791903 0.807015 3.057832 22.364992 6.725462 0.313083 3.379539 0.814289 0.532470 5.463152 1.322072 2.495922 19.054883 5.024902 -0.578874 20.221778 -5.533307 0.583758 1.883082 -9.900946 5.106609 0.053491 -2.764051 23.571135 -28.161781 -20.845762 28.000500 -72.840271 18.425677 13.115474 -11.110203 -41.233324 -10.731954 -2.176116 -6.866131 -8.491375 -28.343019 -1.461566 23.362942 -11.255346 -36.373055 10.750260 -2.761312 15.528593 17.269035 -36.521192 -4.633894 -6.351182 66.965734 -4.982680 7.209772 5.472905 9.473194 -0.031591 0.112571 -0.004745 -4.900199 -41.225117 5.337966 26.003306 64.545635 26.397289 -12.318899 27.494825 -4.266689 0.367326 -14.922465 -3.551228
-16.892965 57.274778 86.513467 172.193318 -35.782221 0.781749 3.070945 22.350262 6.758506 0.309327 3.367739 0.816426 0.534555 5.462052 1.317885 2.492287 19.020726 5.022725 -0.584149 20.122536 -5.622549 0.607378 1.703413 -10.065360 5.112749 0.079640 -2.766769 23.581017 -28.157969 -20.839276 27.949126 -72.759861 18.500791 13.090719 -11.145049 -41.278048 -10.733257 -2.178649 -6.871225 -8.518485 -28.309020 -1.461657 23.347165 -11.183232 -36.336237 10.770929 -2.807404 15.597674 17.256341 -36.539360 -4.593333 -6.356260 66.968640 -4.981272 7.206110 5.474331 9.463090 -0.035908 0.108553 -0.006035 -5.050856 -41.243084 5.476437 26.107065 64.560196 26.419116 -12.392198 27.560890 -4.223932 0.425857 -14.982264 -3.639682
-16.880771 57.269306 86.515680 172.174763 -35.732693 0.788951 3.083605 22.297797 6.762017 0.308514 3.364190 0.815694 0.532228 5.438422 1.317555 2.488325 19.008295 5.018754 -0.587675 20.018084 -5.711504 0.634806 1.514382 -10.230218 5.120921 0.098595 -2.768582 23.584039 -28.148411 -20.835397 27.921050 -72.701303 18.559876 13.096812 -11.181695 -41.324174 -10.733233 -2.171851 -6.875194 -8.519747 -28.279982 -1.468009 23.310154 -11.129988 -36.307827 10.782491 -2.843310 15.654531 17.281691 -36.598312 -4.599688 -6.361550 66.981260 -4.986187 7.204046 5.472554 9.459076 -0.031496 0.110090 -0.008389 -5.171557 -41.298850 5.581858 26.212183 64.574800 26.436730 -12.405693 27.584081 -4.210011 0.410532 -14.994316 -3.660428
-16.869415 57.264836 86.513477 172.167013 -35.707046 0.801614 3.077337 22.270489 6.756728 0.311973 3.361617 0.810562 0.519594 5.405940 1.316771 2.492897 19.013534 5.012256 -0.589647 19.908418 -5.800723 0.665657 1.316014 -10.396407 5.136044 0.086129 -2.776353 23.602206 -28.124848 -20.838495 27.874387 -72.613299 18.645286 13.073201 -11.236658 -41.408046 -10.728397 -2.149560 -6.879106 -8.575006 -28.285406 -1.451875 23.312354 -11.080802 -36.271802 10.784900 -2.878512 15.685800 17.296853 -36.630683 -4.610731 -6.351727 67.002836 -4.978699 7.199968 5.461286 9.452879 -0.034812 0.110436 -0.007915 -5.228368 -41.329058 5.624376 26.275922 64.581917 26.458933 -12.410259 27.595594 -4.190914 0.393810 -14.996786 -3.683965
-16.856722 57.260115 86.509107 172.159002 -35.690855 0.808874 3.068407 22.271670 6.751800 0.313593 3.344859 0.807641 0.522963 5.399772 1.312923 2.491911 18.998021 5.007994 -0.590331 19.794214 -5.890059 0.699439 1.109488 -10.563485 5.156785 0.033851 -2.793564 23.595725 -28.071942 -20.820094 27.837259 -72.569462 18.712790 13.038201 -11.276039 -41.475297 -10.725765 -2.168209 -6.875554 -8.639976 -28.264219 -1.442690 23.331420 -11.040873 -36.232247 10.783058 -2.909764 15.715492 17.301681 -36.655567 -4.611484 -6.358650 67.026213 -4.982070 7.195903 5.448807 9.438131 -0.024344 0.111438 -0.006935 -5.291233 -41.349006 5.672634 26.350398 64.589182 26.497702 -12.434263 27.599873 -4.179428 0.381522 -14.989623 -3.711348
-16.842139 57.255218 86.502963 172.158039 -35.682914 0.800542 3.064555 22.278809 6.759589 0.320429 3.331152 0.806047 0.517155 5.397173 1.310609 2.490239 18.986562 5.003714 -0.589700 19.675586 -5.979068 0.736216 0.894889 -10.730783 5.170540 0.022901 -2.800009 23.601590 -28.059128 -20.833865 27.775309 -72.556733 18.782832 13.026218 -11.292667 -41.500684 -10.735779 -2.225145 -6.864103 -8.630608 -28.208126 -1.462506 23.329821 -11.022863 -36.212216 10.766365 -2.917162 15.751818 17.254042 -36.676482 -4.565038 -6.366460 67.047989 -5.021183 7.190719 5.434634 9.428783 -0.018938 0.113741 -0.008112 -5.433782 -41.360960 5.778141 26.468034 64.611122 26.535775 -12.447254 27.596458 -4.179479 0.380217 -14.994122 -3.731768
-16.822000 57.247870 86.499207 172.142505 -35.658002 0.762188 3.092744 22.260280 6.809004 0.313949 3.331783 0.803402 0.519831 5.393399 1.310902 2.489884 18.975494 4.998903 -0.588090 19.553416 -6.067869 0.775248 0.673854 -10.898347 5.179772 0.021762 -2.801426 23.617102 -28.058563 -20.865362 27.712986 -72.547341 18.853279 13.017173 -11.307244 -41.522426 -10.737199 -2.250273 -6.858781 -8.624881 -28.183499 -1.471898 23.314561 -11.009748 -36.198696 10.750842 -2.924607 15.785365 17.210970 -36.721822 -4.492067 -6.374810 67.057589 -5.037707 7.189635 5.431205 9.412833 -0.033309 0.118021 -0.010513 -5.588251 -41.385484 5.925947 26.510330 64.646992 26.522977 -12.422802 27.598788 -4.180309 0.371215 -15.006448 -3.756937
-16.811930 57.235612 86.500233 172.132220 -35.586581 0.771324 3.096777 22.198902 6.802708 0.310635 3.336167 0.803941 0.516712 5.389748 1.307066 2.490684 18.964102 4.994683 -0.585129 19.429508 -6.156797 0.817118 0.449911 -11.066826 5.194126 -0.007404 -2.807241 23.621532 -28.033400 -20.884777 27.785656 -72.509324 18.827066 12.986638 -11.365495 -41.591970 -10.733967 -2.268652 -6.856210 -8.623362 -28.168912 -1.477795 23.273388 -10.993238 -36.180688 10.753592 -2.948902 15.812975 17.215014 -36.808174 -4.507542 -6.364885 67.084393 -5.040692 7.188535 5.420432 9.404924 -0.032586 0.122792 -0.010911 -5.736825 -41.471183 6.034805 26.617363 64.679043 26.532179 -12.405892 27.610407 -4.156284 0.348256 -15.007763 -3.782938
-16.799298 57.226444 86.496876 172.128674 -35.550195 0.758665 3.099676 22.182093 6.816669 0.310249 3.331517 0.802625 0.520436 5.379991 1.304469 2.486134 18.963604 4.990506 -0.580609 19.304443 -6.245252 0.862157 0.223996 -11.235302 5.217814 -0.059250 -2.822475 23.607852 -27.993596 -20.886506 27.778995 -72.494433 18.859234 12.962204 -11.398265 -41.637193 -10.726751 -2.278110 -6.853426 -8.637978 -28.169678 -1.478680 23.179223 -10.965709 -36.149888 10.800961 -3.015481 15.834057 17.198995 -36.859374 -4.494049 -6.349202 67.107349 -5.028761 7.193502 5.411001 9.399789 -0.040831 0.123609 -0.015775 -5.817650 -41.521027 6.101478 26.547528 64.725777 26.462509 -12.404336 27.616365 -4.171297 0.383362 -15.006728 -3.823107
-16.789725 57.217916 86.492582 172.134637 -35.521036 0.752426 3.090638 22.175057 6.813965 0.310140 3.327795 0.802001 0.524311 5.368358 1.304962 2.483685 18.971095 4.983891 -0.574739 19.177702 -6.332202 0.909780 -0.004886 -11.401831 5.223047 -0.094378 -2.826404 23.611122 -27.975930 -20.888732 27.785889 -72.481345 18.869213 12.948502 -11.421794 -41.669368 -10.726107 -2.310533 -6.842480 -8.628180 -28.153164 -1.483406 23.153457 -10.957569 -36.146455 10.809002 -3.028198 15.850811 17.187809 -36.899547 -4.510244 -6.337734 67.135067 -4.997643 7.200252 5.400573 9.385849 -0.039676 0.122248 -0.027033 -5.853664 -41.565003 6.123836 26.466461 64.761869 26.403429 -12.396864 27.625693 -4.192376 0.396042 -15.003859 -3.841708
-16.781294 57.210113 86.487996 172.145629 -35.498531 0.743177 3.078525 22.179788 6.810100 0.305152 3.351803 0.794943 0.526954 5.355702 1.303588 2.494951 18.956515 4.983005 -0.568670 19.049089 -6.417858 0.957763 -0.237010 -11.566344 5.224871 -0.137350 -2.823397 23.616152 -27.959134 -20.896501 27.756772 -72.478357 18.904482 12.938793 -11.432081 -41.675283 -10.740919 -2.355364 -6.827828 -8.604499 -28.134777 -1.486948 23.126981 -10.949383 -36.145830 10.818849 -3.038848 15.870354 17.173610 -36.930316 -4.518951 -6.330503 67.159544 -4.981573 7.216655 5.384348 9.378489 -0.049056 0.123099 -0.032380 -5.877992 -41.604778 6.131369 26.396466 64.792488 26.366162 -12.382259 27.643244 -4.218746 0.380948 -15.006121 -3.844399
-16.773777 57.201147 86.486223 172.145787 -35.462096 0.736613 3.076382 22.192695 6.803941 0.310661 3.331015 0.797507 0.528541 5.356161 1.302315 2.499870 18.957476 4.978857 -0.563076 18.920093 -6.503410 1.005098 -0.469801 -11.730803 5.226665 -0.180580 -2.816868 23.622312 -27.944034 -20.939772 27.644401 -72.489992 19.024826 12.923420 -11.447636 -41.686109 -10.744385 -2.386607 -6.811689 -8.595527 -28.132952 -1.488903 23.068046 -10.934708 -36.153770 10.843115 -3.063044 15.921167 17.170717 -36.976657 -4.530414 -6.321511 67.180654 -4.960852 7.224190 5.373422 9.368160 -0.039064 0.128182 -0.031181 -5.889726 -41.659043 6.136008 26.329397 64.819095 26.342621 -12.372030 27.658602 -4.251585 0.339315 -14.989661 -3.837637
-16.766643 57.192706 86.485238 172.143333 -35.428609 0.727352 3.078289 22.184713 6.805951 0.311367 3.331555 0.796886 0.528748 5.364825 1.299504 2.504945 18.951014 4.977045 -0.556498 18.793799 -6.590334 1.054793 -0.697352 -11.898251 5.232965 -0.213035 -2.812135 23.621951 -27.938874 -20.944282 27.638067 -72.473203 19.041124 12.914221 -11.467585 -41.702676 -10.746707 -2.416325 -6.797809 -8.584859 -28.130439 -1.491216 23.011682 -10.914574 -36.154998 10.874689 -3.087714 15.970073 17.170209 -37.019937 -4.536300 -6.319194 67.198424 -4.944195 7.225020 5.365590 9.356267 -0.039774 0.131070 -0.031617 -5.901317 -41.709885 6.142341 26.269905 64.839452 26.334060 -12.394173 27.681852 -4.286216 0.334977 -14.988071 -3.852324
-16.759761 57.185819 86.483800 172.139045 -35.408453 0.716397 3.078982 22.192711 6.809569 0.313141 3.325995 0.798132 0.531665 5.360688 1.299744 2.505940 18.951774 4.975055 -0.551169 18.677126 -6.678789 1.108577 -0.916315 -12.069018 5.240742 -0.241189 -2.809639 23.609746 -27.922506 -20.954933 27.615461 -72.472303 19.078655 12.897088 -11.489205 -41.729522 -10.756332 -2.438707 -6.792132 -8.568489 -28.125071 -1.490475 22.916733 -10.860702 -36.159055 10.916468 -3.167713 16.015765 17.166518 -37.047435 -4.538164 -6.279889 67.212732 -4.889275 7.224432 5.356509 9.340979 -0.047000 0.133786 -0.031319 -5.912712 -41.738903 6.154194 26.206975 64.848599 26.324875 -12.459853 27.696725 -4.345623 0.370160 -14.983366 -3.868027
